<svg width="46" height="24" viewBox="0 0 46 24" fill="none" xmlns="http://www.w3.org/2000/svg">
<mask id="path-1-inside-1" fill="white">
<path d="M40.7449 2.60578C39.6535 1.76621 38.3983 0.769226 36.0517 0.769226C33.7051 0.769226 32.45 1.71374 31.3586 2.60578C30.2671 3.49782 29.3394 4.17997 27.3202 4.17997C25.3011 4.17997 24.3188 3.39288 23.2819 2.60578C22.2451 1.81869 20.9354 0.769226 18.5888 0.769226C16.2422 0.769226 14.987 1.71374 13.8956 2.60578C12.8042 3.49782 11.8764 4.17997 9.85728 4.17997C7.83812 4.17997 6.85583 3.39288 5.81897 2.60578C4.78211 1.81869 3.47238 0.769226 1.1258 0.769226H0.580078V1.81869H1.1258C3.09038 1.81869 4.12724 2.60578 5.16411 3.39288C6.20097 4.17997 7.51069 5.22943 9.85728 5.22943C12.2039 5.22943 13.459 4.28492 14.5505 3.39288C15.6419 2.50084 16.5696 1.81869 18.5888 1.81869C20.6079 1.81869 21.5902 2.60578 22.6271 3.39288C23.6639 4.17997 24.9737 5.22943 27.3202 5.22943C29.6668 5.22943 30.922 4.28492 32.0134 3.39288C33.1049 2.50084 34.0326 1.81869 36.0517 1.81869C38.0709 1.81869 39.0532 2.60578 40.09 3.39288C41.1269 4.17997 42.4366 5.22943 44.7832 5.22943H45.3289V4.17997H44.7832C42.8186 4.17997 41.8363 3.44535 40.7449 2.60578Z"/>
</mask>
<path d="M40.7449 2.60578C39.6535 1.76621 38.3983 0.769226 36.0517 0.769226C33.7051 0.769226 32.45 1.71374 31.3586 2.60578C30.2671 3.49782 29.3394 4.17997 27.3202 4.17997C25.3011 4.17997 24.3188 3.39288 23.2819 2.60578C22.2451 1.81869 20.9354 0.769226 18.5888 0.769226C16.2422 0.769226 14.987 1.71374 13.8956 2.60578C12.8042 3.49782 11.8764 4.17997 9.85728 4.17997C7.83812 4.17997 6.85583 3.39288 5.81897 2.60578C4.78211 1.81869 3.47238 0.769226 1.1258 0.769226H0.580078V1.81869H1.1258C3.09038 1.81869 4.12724 2.60578 5.16411 3.39288C6.20097 4.17997 7.51069 5.22943 9.85728 5.22943C12.2039 5.22943 13.459 4.28492 14.5505 3.39288C15.6419 2.50084 16.5696 1.81869 18.5888 1.81869C20.6079 1.81869 21.5902 2.60578 22.6271 3.39288C23.6639 4.17997 24.9737 5.22943 27.3202 5.22943C29.6668 5.22943 30.922 4.28492 32.0134 3.39288C33.1049 2.50084 34.0326 1.81869 36.0517 1.81869C38.0709 1.81869 39.0532 2.60578 40.09 3.39288C41.1269 4.17997 42.4366 5.22943 44.7832 5.22943H45.3289V4.17997H44.7832C42.8186 4.17997 41.8363 3.44535 40.7449 2.60578Z" fill="black"/>
<path d="M0.580078 0.769226V-3.23077H-3.41992V0.769226H0.580078ZM0.580078 1.81869H-3.41992V5.81869H0.580078V1.81869ZM45.3289 5.22943V9.22943H49.3289V5.22943H45.3289ZM45.3289 4.17997H49.3289V0.179971H45.3289V4.17997ZM43.1838 -0.564712C42.0023 -1.4735 39.8238 -3.23077 36.0517 -3.23077V4.76923C36.6126 4.76923 36.9268 4.87812 37.1488 4.98387C37.4481 5.12647 37.7088 5.31684 38.3061 5.77627L43.1838 -0.564712ZM36.0517 -3.23077C32.318 -3.23077 30.1632 -1.58327 28.8272 -0.491372L33.8899 5.70293C34.4073 5.28005 34.668 5.09834 34.9286 4.97651C35.1339 4.88055 35.4551 4.76923 36.0517 4.76923V-3.23077ZM28.8272 -0.491372C28.287 -0.0498359 28.1341 0.0395684 28.0327 0.0856639C28.004 0.0986835 27.8443 0.179971 27.3202 0.179971V8.17997C28.8153 8.17997 30.1291 7.92018 31.3419 7.36912C32.482 6.85113 33.3387 6.15344 33.8899 5.70293L28.8272 -0.491372ZM27.3202 0.179971C26.8785 0.179971 26.7117 0.104409 26.6351 0.0683867C26.4598 -0.0140595 26.2979 -0.126691 25.7005 -0.580232L20.8634 5.79179C21.3028 6.12535 22.1505 6.79981 23.2303 7.30769C24.4089 7.86199 25.7428 8.17997 27.3202 8.17997V0.179971ZM25.7005 -0.580232C24.6215 -1.39933 22.3746 -3.23077 18.5888 -3.23077V4.76923C19.1206 4.76923 19.4451 4.87804 19.6933 4.99735C20.0158 5.15241 20.281 5.34971 20.8634 5.79179L25.7005 -0.580232ZM18.5888 -3.23077C14.8551 -3.23077 12.7002 -1.58327 11.3643 -0.491372L16.4269 5.70293C16.9443 5.28005 17.205 5.09834 17.4656 4.97651C17.6709 4.88055 17.9921 4.76923 18.5888 4.76923V-3.23077ZM11.3643 -0.491372C10.824 -0.0498359 10.6711 0.0395684 10.5697 0.0856639C10.541 0.0986835 10.3814 0.179971 9.85728 0.179971V8.17997C11.3523 8.17997 12.6661 7.92018 13.879 7.36912C15.019 6.85113 15.8757 6.15344 16.4269 5.70293L11.3643 -0.491372ZM9.85728 0.179971C9.41555 0.179971 9.24875 0.104409 9.17216 0.0683869C8.99686 -0.0140591 8.83497 -0.126691 8.23751 -0.580232L3.40043 5.79179C3.83983 6.12535 4.68752 6.79981 5.76737 7.30769C6.94593 7.86199 8.27986 8.17997 9.85728 8.17997V0.179971ZM8.23751 -0.580232C7.15848 -1.39933 4.91164 -3.23077 1.1258 -3.23077V4.76923C1.65764 4.76923 1.98217 4.87804 2.23035 4.99735C2.55287 5.15241 2.81806 5.34971 3.40043 5.79179L8.23751 -0.580232ZM1.1258 -3.23077H0.580078V4.76923H1.1258V-3.23077ZM-3.41992 0.769226V1.81869H4.58008V0.769226H-3.41992ZM0.580078 5.81869H1.1258V-2.18131H0.580078V5.81869ZM1.1258 5.81869C1.52682 5.81869 1.70114 5.88875 1.80549 5.9373C1.99301 6.02455 2.18705 6.15491 2.74557 6.57889L7.58264 0.206864C6.42748 -0.670033 4.48358 -2.18131 1.1258 -2.18131V5.81869ZM2.74557 6.57889C3.82459 7.39799 6.07143 9.22943 9.85728 9.22943V1.22943C9.32544 1.22943 9.00091 1.12062 8.75273 1.00131C8.43021 0.846248 8.16502 0.648949 7.58264 0.206864L2.74557 6.57889ZM9.85728 9.22943C13.591 9.22943 15.7458 7.58192 17.0818 6.49003L12.0191 0.295724C11.5017 0.718608 11.241 0.900314 10.9804 1.02215C10.7752 1.11811 10.4539 1.22943 9.85728 1.22943V9.22943ZM17.0818 6.49003C17.622 6.04849 17.7749 5.95909 17.8764 5.91299C17.905 5.89997 18.0647 5.81869 18.5888 5.81869V-2.18131C17.0937 -2.18131 15.7799 -1.92153 14.5671 -1.37046C13.427 -0.852472 12.5703 -0.154781 12.0191 0.295724L17.0818 6.49003ZM18.5888 5.81869C19.0305 5.81869 19.1973 5.89425 19.2739 5.93027C19.4492 6.01272 19.6111 6.12535 20.2085 6.57889L25.0456 0.206864C24.6062 -0.12669 23.7585 -0.801154 22.6787 -1.30903C21.5001 -1.86333 20.1662 -2.18131 18.5888 -2.18131V5.81869ZM20.2085 6.57889C21.2876 7.39799 23.5344 9.22943 27.3202 9.22943V1.22943C26.7884 1.22943 26.4639 1.12062 26.2157 1.00131C25.8932 0.846248 25.628 0.648949 25.0456 0.206864L20.2085 6.57889ZM27.3202 9.22943C31.0539 9.22943 33.2088 7.58192 34.5448 6.49003L29.4821 0.295724C28.9647 0.718608 28.704 0.900314 28.4434 1.02215C28.2381 1.11811 27.9169 1.22943 27.3202 1.22943V9.22943ZM34.5448 6.49003C35.085 6.04849 35.2379 5.95909 35.3393 5.91299C35.368 5.89997 35.5276 5.81869 36.0517 5.81869V-2.18131C34.5567 -2.18131 33.2429 -1.92153 32.03 -1.37046C30.89 -0.852472 30.0333 -0.154781 29.4821 0.295724L34.5448 6.49003ZM36.0517 5.81869C36.4935 5.81869 36.6603 5.89425 36.7369 5.93027C36.9122 6.01272 37.074 6.12535 37.6715 6.57889L42.5086 0.206864C42.0692 -0.12669 41.2215 -0.801154 40.1416 -1.30903C38.9631 -1.86333 37.6292 -2.18131 36.0517 -2.18131V5.81869ZM37.6715 6.57889C38.7505 7.39799 40.9974 9.22943 44.7832 9.22943V1.22943C44.2514 1.22943 43.9268 1.12062 43.6787 1.00131C43.3561 0.846248 43.091 0.648949 42.5086 0.206864L37.6715 6.57889ZM44.7832 9.22943H45.3289V1.22943H44.7832V9.22943ZM49.3289 5.22943V4.17997H41.3289V5.22943H49.3289ZM45.3289 0.179971H44.7832V8.17997H45.3289V0.179971ZM44.7832 0.179971C44.3452 0.179971 44.1823 0.107825 44.1079 0.0735695C43.9465 -0.000649631 43.7608 -0.120789 43.1838 -0.564712L38.3061 5.77627C38.8204 6.17192 39.6716 6.83887 40.7654 7.34186C41.9461 7.88481 43.2567 8.17997 44.7832 8.17997V0.179971Z" fill="#839745" mask="url(#path-1-inside-1)"/>
<mask id="path-3-inside-2" fill="white">
<path d="M40.7449 11.6836C39.6535 10.844 38.3983 9.84705 36.0517 9.84705C33.7051 9.84705 32.45 10.7916 31.3586 11.6836C30.2671 12.5756 29.3394 13.2578 27.3202 13.2578C25.3011 13.2578 24.3188 12.4707 23.2819 11.6836C22.2451 10.8965 20.9354 9.84705 18.5888 9.84705C16.2422 9.84705 14.987 10.7916 13.8956 11.6836C12.8042 12.5756 11.8764 13.2578 9.85728 13.2578C7.83812 13.2578 6.85583 12.4707 5.81897 11.6836C4.78211 10.8965 3.47238 9.84705 1.1258 9.84705H0.580078V10.8965H1.1258C3.09038 10.8965 4.12724 11.6836 5.16411 12.4707C6.20097 13.2578 7.51069 14.3072 9.85728 14.3072C12.2039 14.3072 13.459 13.3627 14.5505 12.4707C15.6419 11.5786 16.5696 10.8965 18.5888 10.8965C20.6079 10.8965 21.5902 11.6836 22.6271 12.4707C23.6639 13.2578 24.9737 14.3072 27.3202 14.3072C29.6668 14.3072 30.922 13.3627 32.0134 12.4707C33.1049 11.5786 34.0326 10.8965 36.0517 10.8965C38.0709 10.8965 39.0532 11.6836 40.09 12.4707C41.1269 13.2578 42.4366 14.3072 44.7832 14.3072H45.3289V13.2578H44.7832C42.8186 13.2578 41.8363 12.5232 40.7449 11.6836Z"/>
</mask>
<path d="M40.7449 11.6836C39.6535 10.844 38.3983 9.84705 36.0517 9.84705C33.7051 9.84705 32.45 10.7916 31.3586 11.6836C30.2671 12.5756 29.3394 13.2578 27.3202 13.2578C25.3011 13.2578 24.3188 12.4707 23.2819 11.6836C22.2451 10.8965 20.9354 9.84705 18.5888 9.84705C16.2422 9.84705 14.987 10.7916 13.8956 11.6836C12.8042 12.5756 11.8764 13.2578 9.85728 13.2578C7.83812 13.2578 6.85583 12.4707 5.81897 11.6836C4.78211 10.8965 3.47238 9.84705 1.1258 9.84705H0.580078V10.8965H1.1258C3.09038 10.8965 4.12724 11.6836 5.16411 12.4707C6.20097 13.2578 7.51069 14.3072 9.85728 14.3072C12.2039 14.3072 13.459 13.3627 14.5505 12.4707C15.6419 11.5786 16.5696 10.8965 18.5888 10.8965C20.6079 10.8965 21.5902 11.6836 22.6271 12.4707C23.6639 13.2578 24.9737 14.3072 27.3202 14.3072C29.6668 14.3072 30.922 13.3627 32.0134 12.4707C33.1049 11.5786 34.0326 10.8965 36.0517 10.8965C38.0709 10.8965 39.0532 11.6836 40.09 12.4707C41.1269 13.2578 42.4366 14.3072 44.7832 14.3072H45.3289V13.2578H44.7832C42.8186 13.2578 41.8363 12.5232 40.7449 11.6836Z" fill="black"/>
<path d="M0.580078 9.84705V5.84705H-3.41992V9.84705H0.580078ZM0.580078 10.8965H-3.41992V14.8965H0.580078V10.8965ZM45.3289 14.3072V18.3072H49.3289V14.3072H45.3289ZM45.3289 13.2578H49.3289V9.25778H45.3289V13.2578ZM43.1837 8.5131C42.0023 7.60431 39.8238 5.84705 36.0517 5.84705V13.847C36.6126 13.847 36.9268 13.9559 37.1488 14.0617C37.4481 14.2043 37.7088 14.3947 38.3061 14.8541L43.1837 8.5131ZM36.0517 5.84705C32.318 5.84705 30.1632 7.49455 28.8272 8.58644L33.8899 14.7808C34.4073 14.3579 34.668 14.1762 34.9286 14.0543C35.1338 13.9584 35.4551 13.847 36.0517 13.847V5.84705ZM28.8272 8.58644C28.287 9.02797 28.1341 9.11738 28.0327 9.16347C28.004 9.17649 27.8444 9.25778 27.3202 9.25778V17.2578C28.8153 17.2578 30.1291 16.998 31.3419 16.4469C32.482 15.9289 33.3387 15.2313 33.8899 14.7808L28.8272 8.58644ZM27.3202 9.25778C26.8785 9.25778 26.7117 9.18222 26.6351 9.14619C26.4598 9.06375 26.2979 8.95112 25.7005 8.49758L20.8634 14.8696C21.3028 15.2032 22.1505 15.8776 23.2303 16.3855C24.4089 16.9398 25.7428 17.2578 27.3202 17.2578V9.25778ZM25.7005 8.49758C24.6214 7.67848 22.3746 5.84705 18.5888 5.84705V13.847C19.1206 13.847 19.4451 13.9559 19.6933 14.0752C20.0158 14.2302 20.281 14.4275 20.8634 14.8696L25.7005 8.49758ZM18.5888 5.84705C14.8551 5.84705 12.7002 7.49455 11.3643 8.58644L16.4269 14.7808C16.9443 14.3579 17.205 14.1762 17.4656 14.0543C17.6709 13.9584 17.9921 13.847 18.5888 13.847V5.84705ZM11.3643 8.58644C10.824 9.02797 10.6712 9.11738 10.5697 9.16347C10.541 9.17649 10.3814 9.25778 9.85728 9.25778V17.2578C11.3523 17.2578 12.6661 16.998 13.879 16.4469C15.019 15.9289 15.8757 15.2313 16.4269 14.7808L11.3643 8.58644ZM9.85728 9.25778C9.41554 9.25778 9.24874 9.18222 9.17215 9.14619C8.99685 9.06375 8.83496 8.95112 8.2375 8.49758L3.40044 14.8696C3.83984 15.2032 4.68753 15.8776 5.76738 16.3855C6.94594 16.9398 8.27986 17.2578 9.85728 17.2578V9.25778ZM8.2375 8.49758C7.15848 7.67848 4.91164 5.84705 1.1258 5.84705V13.847C1.65764 13.847 1.98217 13.9559 2.23035 14.0752C2.55287 14.2302 2.81807 14.4275 3.40044 14.8696L8.2375 8.49758ZM1.1258 5.84705H0.580078V13.847H1.1258V5.84705ZM-3.41992 9.84705V10.8965H4.58008V9.84705H-3.41992ZM0.580078 14.8965H1.1258V6.8965H0.580078V14.8965ZM1.1258 14.8965C1.52683 14.8965 1.70114 14.9666 1.80549 15.0151C1.99301 15.1024 2.18705 15.2327 2.74557 15.6567L7.58264 9.28467C6.42747 8.40777 4.48358 6.8965 1.1258 6.8965V14.8965ZM2.74557 15.6567C3.8246 16.4758 6.07144 18.3072 9.85728 18.3072V10.3072C9.32543 10.3072 9.0009 10.1984 8.75272 10.0791C8.4302 9.92405 8.16501 9.72675 7.58264 9.28467L2.74557 15.6567ZM9.85728 18.3072C13.591 18.3072 15.7458 16.6597 17.0818 15.5678L12.0191 9.37353C11.5017 9.79641 11.241 9.97812 10.9804 10.1C10.7752 10.1959 10.4539 10.3072 9.85728 10.3072V18.3072ZM17.0818 15.5678C17.622 15.1263 17.7749 15.0369 17.8763 14.9908C17.905 14.9778 18.0647 14.8965 18.5888 14.8965V6.8965C17.0937 6.8965 15.7799 7.15629 14.5671 7.70735C13.427 8.22534 12.5703 8.92303 12.0191 9.37353L17.0818 15.5678ZM18.5888 14.8965C19.0305 14.8965 19.1973 14.9721 19.2739 15.0081C19.4492 15.0905 19.6111 15.2032 20.2085 15.6567L25.0456 9.28467C24.6062 8.95112 23.7585 8.27666 22.6787 7.76878C21.5001 7.21449 20.1662 6.8965 18.5888 6.8965V14.8965ZM20.2085 15.6567C21.2876 16.4758 23.5344 18.3072 27.3202 18.3072V10.3072C26.7884 10.3072 26.4639 10.1984 26.2157 10.0791C25.8932 9.92405 25.628 9.72675 25.0456 9.28467L20.2085 15.6567ZM27.3202 18.3072C31.0539 18.3072 33.2088 16.6597 34.5448 15.5678L29.4821 9.37353C28.9647 9.79641 28.704 9.97812 28.4434 10.1C28.2381 10.1959 27.9169 10.3072 27.3202 10.3072V18.3072ZM34.5448 15.5678C35.085 15.1263 35.2379 15.0369 35.3393 14.9908C35.368 14.9778 35.5276 14.8965 36.0517 14.8965V6.8965C34.5567 6.8965 33.2429 7.15629 32.0301 7.70735C30.89 8.22534 30.0333 8.92303 29.4821 9.37353L34.5448 15.5678ZM36.0517 14.8965C36.4935 14.8965 36.6603 14.9721 36.7369 15.0081C36.9122 15.0905 37.0741 15.2032 37.6715 15.6567L42.5086 9.28467C42.0692 8.95112 41.2215 8.27666 40.1416 7.76878C38.9631 7.21449 37.6292 6.8965 36.0517 6.8965V14.8965ZM37.6715 15.6567C38.7505 16.4758 40.9974 18.3072 44.7832 18.3072V10.3072C44.2514 10.3072 43.9268 10.1984 43.6787 10.0791C43.3561 9.92405 43.091 9.72675 42.5086 9.28467L37.6715 15.6567ZM44.7832 18.3072H45.3289V10.3072H44.7832V18.3072ZM49.3289 14.3072V13.2578H41.3289V14.3072H49.3289ZM45.3289 9.25778H44.7832V17.2578H45.3289V9.25778ZM44.7832 9.25778C44.3452 9.25778 44.1823 9.18563 44.1078 9.15138C43.9465 9.07716 43.7608 8.95702 43.1837 8.5131L38.3061 14.8541C38.8204 15.2497 39.6717 15.9167 40.7654 16.4197C41.9461 16.9626 43.2567 17.2578 44.7832 17.2578V9.25778Z" fill="#839745" mask="url(#path-3-inside-2)"/>
<mask id="path-5-inside-3" fill="white">
<path d="M40.7449 20.7614C39.6535 19.9218 38.3983 18.9248 36.0517 18.9248C33.7051 18.9248 32.45 19.8693 31.3586 20.7614C30.2671 21.6534 29.3394 22.3355 27.3202 22.3355C25.3011 22.3355 24.3188 21.5484 23.2819 20.7614C22.2451 19.9743 20.9354 18.9248 18.5888 18.9248C16.2422 18.9248 14.987 19.8693 13.8956 20.7614C12.8042 21.6534 11.8764 22.3355 9.85728 22.3355C7.83812 22.3355 6.85583 21.5484 5.81897 20.7614C4.78211 19.9743 3.47238 18.9248 1.1258 18.9248H0.580078V19.9743H1.1258C3.09038 19.9743 4.12724 20.7614 5.16411 21.5484C6.20097 22.3355 7.51069 23.385 9.85728 23.385C12.2039 23.385 13.459 22.4405 14.5505 21.5484C15.6419 20.6564 16.5696 19.9743 18.5888 19.9743C20.6079 19.9743 21.5902 20.7614 22.6271 21.5484C23.6639 22.3355 24.9737 23.385 27.3202 23.385C29.6668 23.385 30.922 22.4405 32.0134 21.5484C33.1049 20.6564 34.0326 19.9743 36.0517 19.9743C38.0709 19.9743 39.0532 20.7614 40.09 21.5484C41.1269 22.3355 42.4366 23.385 44.7832 23.385H45.3289V22.3355H44.7832C42.8186 22.3355 41.8363 21.6009 40.7449 20.7614Z"/>
</mask>
<path d="M40.7449 20.7614C39.6535 19.9218 38.3983 18.9248 36.0517 18.9248C33.7051 18.9248 32.45 19.8693 31.3586 20.7614C30.2671 21.6534 29.3394 22.3355 27.3202 22.3355C25.3011 22.3355 24.3188 21.5484 23.2819 20.7614C22.2451 19.9743 20.9354 18.9248 18.5888 18.9248C16.2422 18.9248 14.987 19.8693 13.8956 20.7614C12.8042 21.6534 11.8764 22.3355 9.85728 22.3355C7.83812 22.3355 6.85583 21.5484 5.81897 20.7614C4.78211 19.9743 3.47238 18.9248 1.1258 18.9248H0.580078V19.9743H1.1258C3.09038 19.9743 4.12724 20.7614 5.16411 21.5484C6.20097 22.3355 7.51069 23.385 9.85728 23.385C12.2039 23.385 13.459 22.4405 14.5505 21.5484C15.6419 20.6564 16.5696 19.9743 18.5888 19.9743C20.6079 19.9743 21.5902 20.7614 22.6271 21.5484C23.6639 22.3355 24.9737 23.385 27.3202 23.385C29.6668 23.385 30.922 22.4405 32.0134 21.5484C33.1049 20.6564 34.0326 19.9743 36.0517 19.9743C38.0709 19.9743 39.0532 20.7614 40.09 21.5484C41.1269 22.3355 42.4366 23.385 44.7832 23.385H45.3289V22.3355H44.7832C42.8186 22.3355 41.8363 21.6009 40.7449 20.7614Z" fill="black"/>
<path d="M0.580078 18.9248V14.9248H-3.41992V18.9248H0.580078ZM0.580078 19.9743H-3.41992V23.9743H0.580078V19.9743ZM45.3289 23.385V27.385H49.3289V23.385H45.3289ZM45.3289 22.3355H49.3289V18.3355H45.3289V22.3355ZM43.1837 17.5909C42.0023 16.6821 39.8238 14.9248 36.0517 14.9248V22.9248C36.6126 22.9248 36.9268 23.0337 37.1488 23.1394C37.4481 23.2821 37.7088 23.4724 38.3061 23.9319L43.1837 17.5909ZM36.0517 14.9248C32.318 14.9248 30.1632 16.5723 28.8272 17.6642L33.8899 23.8585C34.4073 23.4356 34.668 23.2539 34.9286 23.1321C35.1338 23.0361 35.4551 22.9248 36.0517 22.9248V14.9248ZM28.8272 17.6642C28.287 18.1057 28.1341 18.1951 28.0327 18.2412C28.004 18.2543 27.8444 18.3355 27.3202 18.3355V26.3355C28.8153 26.3355 30.1291 26.0758 31.3419 25.5247C32.482 25.0067 33.3387 24.309 33.8899 23.8585L28.8272 17.6642ZM27.3202 18.3355C26.8785 18.3355 26.7117 18.26 26.6351 18.224C26.4598 18.1415 26.2979 18.0289 25.7005 17.5753L20.8634 23.9474C21.3028 24.2809 22.1505 24.9554 23.2303 25.4633C24.4089 26.0176 25.7428 26.3355 27.3202 26.3355V18.3355ZM25.7005 17.5753C24.6214 16.7562 22.3746 14.9248 18.5888 14.9248V22.9248C19.1206 22.9248 19.4451 23.0336 19.6933 23.1529C20.0158 23.308 20.281 23.5053 20.8634 23.9474L25.7005 17.5753ZM18.5888 14.9248C14.8551 14.9248 12.7002 16.5723 11.3643 17.6642L16.4269 23.8585C16.9443 23.4356 17.205 23.2539 17.4656 23.1321C17.6709 23.0361 17.9921 22.9248 18.5888 22.9248V14.9248ZM11.3643 17.6642C10.824 18.1057 10.6712 18.1951 10.5697 18.2412C10.541 18.2543 10.3814 18.3355 9.85728 18.3355V26.3355C11.3523 26.3355 12.6661 26.0758 13.879 25.5247C15.019 25.0067 15.8757 24.309 16.4269 23.8585L11.3643 17.6642ZM9.85728 18.3355C9.41554 18.3355 9.24874 18.26 9.17215 18.224C8.99685 18.1415 8.83496 18.0289 8.2375 17.5753L3.40044 23.9474C3.83984 24.2809 4.68753 24.9554 5.76738 25.4633C6.94594 26.0176 8.27986 26.3355 9.85728 26.3355V18.3355ZM8.2375 17.5753C7.15848 16.7562 4.91164 14.9248 1.1258 14.9248V22.9248C1.65764 22.9248 1.98217 23.0336 2.23035 23.1529C2.55287 23.308 2.81807 23.5053 3.40044 23.9474L8.2375 17.5753ZM1.1258 14.9248H0.580078V22.9248H1.1258V14.9248ZM-3.41992 18.9248V19.9743H4.58008V18.9248H-3.41992ZM0.580078 23.9743H1.1258V15.9743H0.580078V23.9743ZM1.1258 23.9743C1.52683 23.9743 1.70114 24.0443 1.80549 24.0929C1.99301 24.1801 2.18705 24.3105 2.74557 24.7345L7.58264 18.3624C6.42747 17.4855 4.48358 15.9743 1.1258 15.9743V23.9743ZM2.74557 24.7345C3.8246 25.5536 6.07144 27.385 9.85728 27.385V19.385C9.32543 19.385 9.0009 19.2762 8.75272 19.1569C8.4302 19.0018 8.16501 18.8045 7.58264 18.3624L2.74557 24.7345ZM9.85728 27.385C13.591 27.385 15.7458 25.7375 17.0818 24.6456L12.0191 18.4513C11.5017 18.8742 11.241 19.0559 10.9804 19.1777C10.7752 19.2737 10.4539 19.385 9.85728 19.385V27.385ZM17.0818 24.6456C17.622 24.2041 17.7749 24.1147 17.8763 24.0686C17.905 24.0555 18.0647 23.9743 18.5888 23.9743V15.9743C17.0937 15.9743 15.7799 16.234 14.5671 16.7851C13.427 17.3031 12.5703 18.0008 12.0191 18.4513L17.0818 24.6456ZM18.5888 23.9743C19.0305 23.9743 19.1973 24.0498 19.2739 24.0858C19.4492 24.1683 19.6111 24.2809 20.2085 24.7345L25.0456 18.3624C24.6062 18.0289 23.7585 17.3544 22.6787 16.8465C21.5001 16.2922 20.1662 15.9743 18.5888 15.9743V23.9743ZM20.2085 24.7345C21.2876 25.5536 23.5344 27.385 27.3202 27.385V19.385C26.7884 19.385 26.4639 19.2762 26.2157 19.1569C25.8932 19.0018 25.628 18.8045 25.0456 18.3624L20.2085 24.7345ZM27.3202 27.385C31.0539 27.385 33.2088 25.7375 34.5448 24.6456L29.4821 18.4513C28.9647 18.8742 28.704 19.0559 28.4434 19.1777C28.2381 19.2737 27.9169 19.385 27.3202 19.385V27.385ZM34.5448 24.6456C35.085 24.2041 35.2379 24.1147 35.3393 24.0686C35.368 24.0555 35.5276 23.9743 36.0517 23.9743V15.9743C34.5567 15.9743 33.2429 16.234 32.0301 16.7851C30.89 17.3031 30.0333 18.0008 29.4821 18.4513L34.5448 24.6456ZM36.0517 23.9743C36.4935 23.9743 36.6603 24.0498 36.7369 24.0858C36.9122 24.1683 37.0741 24.2809 37.6715 24.7345L42.5086 18.3624C42.0692 18.0289 41.2215 17.3544 40.1416 16.8465C38.9631 16.2922 37.6292 15.9743 36.0517 15.9743V23.9743ZM37.6715 24.7345C38.7505 25.5536 40.9974 27.385 44.7832 27.385V19.385C44.2514 19.385 43.9268 19.2762 43.6787 19.1569C43.3561 19.0018 43.091 18.8045 42.5086 18.3624L37.6715 24.7345ZM44.7832 27.385H45.3289V19.385H44.7832V27.385ZM49.3289 23.385V22.3355H41.3289V23.385H49.3289ZM45.3289 18.3355H44.7832V26.3355H45.3289V18.3355ZM44.7832 18.3355C44.3452 18.3355 44.1823 18.2634 44.1078 18.2291C43.9465 18.1549 43.7608 18.0348 43.1837 17.5909L38.3061 23.9319C38.8204 24.3275 39.6717 24.9944 40.7654 25.4974C41.9461 26.0404 43.2567 26.3355 44.7832 26.3355V18.3355Z" fill="#839745" mask="url(#path-5-inside-3)"/>
</svg>
