<svg width="18" height="16" viewBox="0 0 18 16" fill="none" xmlns="http://www.w3.org/2000/svg">
<path d="M17.3428 2.12006C17.2354 1.99284 17.1015 1.89061 16.9505 1.82053C16.7995 1.75045 16.635 1.71422 16.4685 1.71435H3.6057L3.49713 0.971497C3.4558 0.698981 3.31738 0.450581 3.10736 0.272068C2.89735 0.0935553 2.62989 -0.00304275 2.35428 7.30902e-05H0.571426C0.419874 7.30902e-05 0.27453 0.0602767 0.167367 0.16744C0.0602037 0.274603 0 0.419948 0 0.571499C0 0.723051 0.0602037 0.868395 0.167367 0.975558C0.27453 1.08272 0.419874 1.14293 0.571426 1.14293H2.3657L3.93141 11.6C3.97274 11.8725 4.11116 12.1209 4.32118 12.2995C4.53119 12.478 4.79865 12.5746 5.07426 12.5714H15.9999C16.1515 12.5714 16.2968 12.5112 16.404 12.4041C16.5112 12.2969 16.5714 12.1516 16.5714 12C16.5714 11.8485 16.5112 11.7031 16.404 11.596C16.2968 11.4888 16.1515 11.4286 15.9999 11.4286H5.06283L4.80569 9.71432H15.5142C15.7873 9.71806 16.0527 9.62387 16.2624 9.44882C16.472 9.27376 16.612 9.02942 16.6571 8.76003L17.6056 3.04577C17.6318 2.88164 17.6218 2.71378 17.5764 2.5539C17.531 2.39402 17.4513 2.24597 17.3428 2.12006ZM15.5142 8.57146H4.65712L3.77713 2.8572H16.4685L15.5142 8.57146Z" fill="#839745"/>
<path d="M6.28543 16.0001C6.91661 16.0001 7.42828 15.4884 7.42828 14.8572C7.42828 14.226 6.91661 13.7144 6.28543 13.7144C5.65425 13.7144 5.14258 14.226 5.14258 14.8572C5.14258 15.4884 5.65425 16.0001 6.28543 16.0001Z" fill="#839745"/>
<path d="M13.7141 16.0001C14.3453 16.0001 14.857 15.4884 14.857 14.8572C14.857 14.226 14.3453 13.7144 13.7141 13.7144C13.083 13.7144 12.5713 14.226 12.5713 14.8572C12.5713 15.4884 13.083 16.0001 13.7141 16.0001Z" fill="#839745"/>
</svg>
