<svg width="48" height="23" viewBox="0 0 48 23" fill="none" xmlns="http://www.w3.org/2000/svg">
<path d="M0.685059 1.03711L6.47839 5.01704L12.2728 1.03711L18.0692 5.01704L23.8646 1.03711L29.6599 5.01704L35.4543 1.03711L41.2456 5.01704L47.0389 1.03711" stroke="#839745" stroke-miterlimit="10"/>
<path d="M7.15885 10.1443C7.15885 10.6983 6.69005 11.1573 6.09925 11.1573C5.50845 11.1573 5.03965 10.6983 5.03965 10.1443C5.03965 9.59026 5.50845 9.1312 6.09925 9.1312C6.69005 9.1312 7.15885 9.59026 7.15885 10.1443Z" fill="#839745" stroke="white" stroke-width="0.3"/>
<path d="M19.0534 10.1443C19.0534 10.6983 18.5846 11.1573 17.9938 11.1573C17.403 11.1573 16.9342 10.6983 16.9342 10.1443C16.9342 9.59026 17.403 9.1312 17.9938 9.1312C18.5846 9.1312 19.0534 9.59026 19.0534 10.1443Z" fill="#839745" stroke="white" stroke-width="0.3"/>
<path d="M30.9494 10.1443C30.9494 10.6983 30.4806 11.1573 29.8898 11.1573C29.299 11.1573 28.8302 10.6983 28.8302 10.1443C28.8302 9.59026 29.299 9.1312 29.8898 9.1312C30.4806 9.1312 30.9494 9.59026 30.9494 10.1443Z" fill="#839745" stroke="white" stroke-width="0.3"/>
<path d="M42.8454 10.1443C42.8454 10.6983 42.3766 11.1573 41.7858 11.1573C41.195 11.1573 40.7262 10.6983 40.7262 10.1443C40.7262 9.59026 41.195 9.1312 41.7858 9.1312C42.3766 9.1312 42.8454 9.59026 42.8454 10.1443Z" fill="#839745" stroke="white" stroke-width="0.3"/>
<path d="M7.15885 15.7661C7.15885 16.3201 6.69005 16.7792 6.09925 16.7792C5.50845 16.7792 5.03965 16.3201 5.03965 15.7661C5.03965 15.2121 5.50845 14.753 6.09925 14.753C6.69005 14.753 7.15885 15.2121 7.15885 15.7661Z" fill="#839745" stroke="white" stroke-width="0.3"/>
<path d="M19.0534 15.7661C19.0534 16.3201 18.5846 16.7792 17.9938 16.7792C17.403 16.7792 16.9342 16.3201 16.9342 15.7661C16.9342 15.2121 17.403 14.753 17.9938 14.753C18.5846 14.753 19.0534 15.2121 19.0534 15.7661Z" fill="#839745" stroke="white" stroke-width="0.3"/>
<path d="M30.9494 15.7661C30.9494 16.3201 30.4806 16.7792 29.8898 16.7792C29.299 16.7792 28.8302 16.3201 28.8302 15.7661C28.8302 15.2121 29.299 14.753 29.8898 14.753C30.4806 14.753 30.9494 15.2121 30.9494 15.7661Z" fill="#839745" stroke="white" stroke-width="0.3"/>
<path d="M42.8454 15.7661C42.8454 16.3201 42.3766 16.7792 41.7858 16.7792C41.195 16.7792 40.7262 16.3201 40.7262 15.7661C40.7262 15.2121 41.195 14.753 41.7858 14.753C42.3766 14.753 42.8454 15.2121 42.8454 15.7661Z" fill="#839745" stroke="white" stroke-width="0.3"/>
<path d="M7.15885 21.3879C7.15885 21.9419 6.69005 22.401 6.09925 22.401C5.50845 22.401 5.03965 21.9419 5.03965 21.3879C5.03965 20.8339 5.50845 20.3749 6.09925 20.3749C6.69005 20.3749 7.15885 20.8339 7.15885 21.3879Z" fill="#839745" stroke="white" stroke-width="0.3"/>
<path d="M12.6022 10.1443C12.6022 10.6983 12.1334 11.1573 11.5426 11.1573C10.9518 11.1573 10.483 10.6983 10.483 10.1443C10.483 9.59026 10.9518 9.1312 11.5426 9.1312C12.1334 9.1312 12.6022 9.59026 12.6022 10.1443Z" fill="#839745" stroke="white" stroke-width="0.3"/>
<path d="M12.6022 15.7661C12.6022 16.3201 12.1334 16.7792 11.5426 16.7792C10.9518 16.7792 10.483 16.3201 10.483 15.7661C10.483 15.2121 10.9518 14.753 11.5426 14.753C12.1334 14.753 12.6022 15.2121 12.6022 15.7661Z" fill="#839745" stroke="white" stroke-width="0.3"/>
<path d="M12.6022 21.3879C12.6022 21.9419 12.1334 22.401 11.5426 22.401C10.9518 22.401 10.483 21.9419 10.483 21.3879C10.483 20.8339 10.9518 20.3749 11.5426 20.3749C12.1334 20.3749 12.6022 20.8339 12.6022 21.3879Z" fill="#839745" stroke="white" stroke-width="0.3"/>
<path d="M24.4977 10.1443C24.4977 10.6983 24.0289 11.1573 23.4381 11.1573C22.8473 11.1573 22.3785 10.6983 22.3785 10.1443C22.3785 9.59026 22.8473 9.1312 23.4381 9.1312C24.0289 9.1312 24.4977 9.59026 24.4977 10.1443Z" fill="#839745" stroke="white" stroke-width="0.3"/>
<path d="M24.4977 15.7661C24.4977 16.3201 24.0289 16.7792 23.4381 16.7792C22.8473 16.7792 22.3785 16.3201 22.3785 15.7661C22.3785 15.2121 22.8473 14.753 23.4381 14.753C24.0289 14.753 24.4977 15.2121 24.4977 15.7661Z" fill="#839745" stroke="white" stroke-width="0.3"/>
<path d="M24.4977 21.3879C24.4977 21.9419 24.0289 22.401 23.4381 22.401C22.8473 22.401 22.3785 21.9419 22.3785 21.3879C22.3785 20.8339 22.8473 20.3749 23.4381 20.3749C24.0289 20.3749 24.4977 20.8339 24.4977 21.3879Z" fill="#839745" stroke="white" stroke-width="0.3"/>
<path d="M36.9977 10.1443C36.9977 10.6983 36.5289 11.1573 35.9381 11.1573C35.3473 11.1573 34.8785 10.6983 34.8785 10.1443C34.8785 9.59026 35.3473 9.1312 35.9381 9.1312C36.5289 9.1312 36.9977 9.59026 36.9977 10.1443Z" fill="#839745" stroke="white" stroke-width="0.3"/>
<path d="M36.9977 15.7661C36.9977 16.3201 36.5289 16.7792 35.9381 16.7792C35.3473 16.7792 34.8785 16.3201 34.8785 15.7661C34.8785 15.2121 35.3473 14.753 35.9381 14.753C36.5289 14.753 36.9977 15.2121 36.9977 15.7661Z" fill="#839745" stroke="white" stroke-width="0.3"/>
<path d="M36.9977 21.3879C36.9977 21.9419 36.5289 22.401 35.9381 22.401C35.3473 22.401 34.8785 21.9419 34.8785 21.3879C34.8785 20.8339 35.3473 20.3749 35.9381 20.3749C36.5289 20.3749 36.9977 20.8339 36.9977 21.3879Z" fill="#839745" stroke="white" stroke-width="0.3"/>
<path d="M19.0534 21.3879C19.0534 21.9419 18.5846 22.401 17.9938 22.401C17.403 22.401 16.9342 21.9419 16.9342 21.3879C16.9342 20.8339 17.403 20.3749 17.9938 20.3749C18.5846 20.3749 19.0534 20.8339 19.0534 21.3879Z" fill="#839745" stroke="white" stroke-width="0.3"/>
<path d="M30.9494 21.3879C30.9494 21.9419 30.4806 22.401 29.8898 22.401C29.299 22.401 28.8302 21.9419 28.8302 21.3879C28.8302 20.8339 29.299 20.3749 29.8898 20.3749C30.4806 20.3749 30.9494 20.8339 30.9494 21.3879Z" fill="#839745" stroke="white" stroke-width="0.3"/>
<path d="M42.8454 21.3879C42.8454 21.9419 42.3766 22.401 41.7858 22.401C41.195 22.401 40.7262 21.9419 40.7262 21.3879C40.7262 20.8339 41.195 20.3749 41.7858 20.3749C42.3766 20.3749 42.8454 20.8339 42.8454 21.3879Z" fill="#839745" stroke="white" stroke-width="0.3"/>
</svg>
