<svg width="37" height="28" viewBox="0 0 37 28" fill="none" xmlns="http://www.w3.org/2000/svg">
<path fill-rule="evenodd" clip-rule="evenodd" d="M36.7782 7.35879L32.4391 3.01963L31.9494 2.52994L31.92 2.50054L31.9054 2.4859L31.8908 2.47129L31.8617 2.4422L31.8472 2.42772L31.8327 2.41327L31.8183 2.39886L31.804 2.3845L31.7896 2.37017L31.7753 2.35589L31.7611 2.34164L31.7469 2.32744L31.7327 2.31328L31.7186 2.29916L31.7045 2.28508L31.6905 2.27105L31.6765 2.25705L31.6626 2.2431L31.6487 2.22919L31.6348 2.21533L31.6072 2.18773L31.5935 2.174L31.5798 2.16031L31.5525 2.13306L31.539 2.11951L31.5255 2.106L31.4986 2.07911L31.4852 2.06574L31.4719 2.05241L31.4586 2.03913L31.4454 2.0259L31.4322 2.01271L31.419 1.99957L31.4059 1.98648L31.3929 1.97343L31.3412 1.92174L31.3156 1.89618L31.2903 1.87082L31.2651 1.84566L31.2402 1.8207L31.2278 1.8083L31.2154 1.79595L31.1909 1.7714L31.0948 1.6753L31.0021 1.58264L30.9795 1.56003L30.9683 1.54881L30.9571 1.53765L30.913 1.49356L30.9021 1.48269L30.8913 1.47187L30.8806 1.46111L30.8699 1.45041L30.8486 1.42918L30.8276 1.40819L30.7461 1.32664L30.7068 1.28734L30.6971 1.27767L30.6875 1.26807L30.678 1.25852L30.6685 1.24905L30.595 1.17554L30.5861 1.16664L30.5773 1.15781L30.5598 1.14035L30.5512 1.13172L30.5426 1.12316L30.5341 1.11467L30.5257 1.10624L30.4607 1.04128L30.4452 1.02573L30.4299 1.01047L30.4002 0.980784L30.3858 0.966374L30.3787 0.959276L30.3717 0.952251L30.3443 0.924882L30.3311 0.91164L30.3182 0.898694L30.3118 0.892333L30.3055 0.886046L30.2932 0.873701L30.2871 0.867641L30.2811 0.861658L30.2752 0.85575L30.2694 0.849919L30.2636 0.844165L30.2579 0.838488L30.2468 0.827366L30.2255 0.806056L30.2055 0.786006L30.1867 0.767231L30.1692 0.749747L30.161 0.741495L30.157 0.737492L30.153 0.733571L30.1492 0.729733L30.1454 0.725978L30.1382 0.718718L30.1247 0.705204L30.1215 0.702036L30.1184 0.698954L30.1125 0.693045L30.1097 0.690218L30.1069 0.687479L30.1017 0.682257L30.0992 0.679776L30.0968 0.677382L30.0945 0.675075L30.0923 0.672855L30.0843 0.664856L30.0825 0.663078L30.0808 0.661388L30.0792 0.659788L30.0777 0.658277L30.075 0.655523L30.0737 0.654282L30.0726 0.653131L30.0715 0.652071L30.0706 0.651101L30.0697 0.650223L30.0689 0.649436L30.0682 0.648741L30.0676 0.648138L30.0671 0.647626L30.0667 0.647207L30.0663 0.646881L30.0661 0.646648L30.066 0.646508L29.7124 1.00001L30.0659 0.646461L29.7124 0.292908L29.3588 0.646461L22.6465 7.35879L23.3536 8.0659L29.7124 1.70712L29.7228 1.71757L29.7536 1.74839L29.7856 1.78032L29.7937 1.78847L29.8019 1.79669L29.8102 1.80499L29.8186 1.81335L29.8527 1.84746L29.8614 1.85616L29.8702 1.86492L29.879 1.87375L29.8879 1.88264L29.8969 1.8916L29.9059 1.90063L29.915 1.90972L29.9241 1.91888L29.9614 1.95615L30.039 2.03374L31.732 3.72673L36.0711 8.0659L36.7782 7.35879ZM7.71251 3.15138C8.33036 3.15138 8.83123 2.66978 8.83123 2.0757C8.83123 1.48161 8.33036 1.00001 7.71251 1.00001C7.09466 1.00001 6.59379 1.48161 6.59379 2.0757C6.59379 2.66978 7.09466 3.15138 7.71251 3.15138ZM7.71251 7.45414C8.33036 7.45415 8.83123 6.97254 8.83123 6.37845C8.83123 5.78435 8.33036 5.30275 7.71251 5.30275C7.09466 5.30275 6.59379 5.78435 6.59379 6.37845C6.59379 6.97254 7.09466 7.45414 7.71251 7.45414ZM8.83123 10.6813C8.83123 11.2754 8.33036 11.757 7.71251 11.757C7.09466 11.757 6.59379 11.2754 6.59379 10.6813C6.59379 10.0872 7.09466 9.6056 7.71251 9.6056C8.33036 9.60561 8.83123 10.0872 8.83123 10.6813ZM7.71251 16.0597C8.33036 16.0597 8.83123 15.5781 8.83123 14.984C8.83123 14.3899 8.33036 13.9083 7.71251 13.9083C7.09466 13.9083 6.59379 14.3899 6.59379 14.984C6.59379 15.5781 7.09466 16.0597 7.71251 16.0597ZM8.83123 19.2868C8.83123 19.8809 8.33036 20.3625 7.71251 20.3625C7.09466 20.3625 6.59379 19.8809 6.59379 19.2868C6.59379 18.6927 7.09466 18.2111 7.71251 18.2111C8.33036 18.2111 8.83123 18.6927 8.83123 19.2868ZM0.646484 20.449L4.98565 24.7881L5.47533 25.2778L5.50473 25.3072L5.51938 25.3219L5.53398 25.3365L5.56307 25.3656L5.57756 25.38L5.592 25.3945L5.60641 25.4089L5.62078 25.4233L5.6351 25.4376L5.64939 25.4519L5.66363 25.4661L5.67783 25.4803L5.69199 25.4945L5.70611 25.5086L5.72019 25.5227L5.73423 25.5367L5.74822 25.5507L5.76217 25.5647L5.77608 25.5786L5.78994 25.5924L5.81754 25.62L5.83128 25.6338L5.84497 25.6474L5.87221 25.6747L5.88577 25.6882L5.89928 25.7018L5.92616 25.7286L5.93953 25.742L5.95286 25.7553L5.96614 25.7686L5.97937 25.7819L5.99256 25.795L6.0057 25.8082L6.01879 25.8213L6.03184 25.8343L6.08354 25.886L6.10909 25.9116L6.13445 25.9369L6.15961 25.9621L6.18457 25.9871L6.19697 25.9995L6.20932 26.0118L6.23387 26.0364L6.32998 26.1325L6.42263 26.2251L6.44524 26.2477L6.45646 26.2589L6.46762 26.2701L6.51171 26.3142L6.52259 26.3251L6.5334 26.3359L6.54417 26.3466L6.55487 26.3573L6.5761 26.3786L6.59709 26.3996L6.67864 26.4811L6.71793 26.5204L6.7276 26.5301L6.73721 26.5397L6.74675 26.5492L6.75623 26.5587L6.82974 26.6322L6.83863 26.6411L6.84746 26.6499L6.86492 26.6674L6.87355 26.676L6.88211 26.6846L6.89061 26.6931L6.89903 26.7015L6.96399 26.7665L6.97954 26.782L6.99481 26.7973L7.02449 26.827L7.0389 26.8414L7.046 26.8485L7.05302 26.8555L7.08039 26.8829L7.09363 26.8961L7.10658 26.9091L7.11294 26.9154L7.11923 26.9217L7.13157 26.9341L7.13763 26.9401L7.14362 26.9461L7.14952 26.952L7.15535 26.9578L7.16111 26.9636L7.16678 26.9693L7.17791 26.9804L7.19922 27.0017L7.21927 27.0217L7.23804 27.0405L7.25553 27.058L7.26378 27.0663L7.26778 27.0703L7.2717 27.0742L7.27554 27.078L7.27929 27.0818L7.28656 27.089L7.30007 27.1026L7.30324 27.1057L7.30632 27.1088L7.31223 27.1147L7.31505 27.1175L7.31779 27.1203L7.32302 27.1255L7.3255 27.128L7.32789 27.1304L7.3302 27.1327L7.33242 27.1349L7.34042 27.1429L7.3422 27.1447L7.34388 27.1464L7.34549 27.148L7.347 27.1495L7.34975 27.1522L7.35099 27.1535L7.35214 27.1546L7.3532 27.1557L7.35417 27.1567L7.35505 27.1575L7.35584 27.1583L7.35653 27.159L7.35714 27.1596L7.35765 27.1601L7.35807 27.1605L7.35839 27.1609L7.35863 27.1611L7.35877 27.1612L7.71237 26.8077L7.35881 27.1613L7.71237 27.5148L8.06592 27.1613L14.7782 20.449L14.0711 19.7419L7.71237 26.1006L7.70191 26.0902L7.6711 26.0594L7.63917 26.0274L7.63102 26.0193L7.62279 26.0111L7.6145 26.0028L7.60614 25.9944L7.57203 25.9603L7.56333 25.9516L7.55457 25.9428L7.54574 25.934L7.53684 25.9251L7.52788 25.9161L7.51886 25.9071L7.50976 25.898L7.50061 25.8889L7.46333 25.8516L7.38574 25.774L5.69275 24.081L1.35359 19.7419L0.646484 20.449ZM28.5935 25.7321C28.5935 25.138 29.0944 24.6564 29.7122 24.6564C30.3301 24.6564 30.8309 25.138 30.8309 25.7321C30.8309 26.3261 30.3301 26.8077 29.7122 26.8077C29.0944 26.8077 28.5935 26.3261 28.5935 25.7321ZM29.7122 20.3536C29.0944 20.3536 28.5935 20.8352 28.5935 21.4293C28.5935 22.0234 29.0944 22.505 29.7122 22.505C30.3301 22.505 30.8309 22.0234 30.8309 21.4293C30.8309 20.8352 30.3301 20.3536 29.7122 20.3536ZM28.5935 17.1265C28.5935 16.5324 29.0944 16.0508 29.7122 16.0508C30.3301 16.0508 30.8309 16.5324 30.8309 17.1265C30.8309 17.7205 30.3301 18.2022 29.7122 18.2022C29.0944 18.2022 28.5935 17.7205 28.5935 17.1265ZM29.7122 11.748C29.0944 11.748 28.5935 12.2296 28.5935 12.8237C28.5935 13.4178 29.0944 13.8994 29.7122 13.8994C30.3301 13.8994 30.8309 13.4178 30.8309 12.8237C30.8309 12.2296 30.3301 11.748 29.7122 11.748ZM28.5935 8.52098C28.5935 7.92689 29.0944 7.44528 29.7122 7.44528C30.3301 7.44528 30.8309 7.92689 30.8309 8.52098C30.8309 9.11508 30.3301 9.59668 29.7122 9.59668C29.0944 9.59668 28.5935 9.11508 28.5935 8.52098Z" fill="#839745"/>
</svg>
