<svg width="50" height="26" viewBox="0 0 50 26" fill="none" xmlns="http://www.w3.org/2000/svg">
<path fill-rule="evenodd" clip-rule="evenodd" d="M1 1.5C15.6794 1.5 28.5508 10.5968 35.5553 24.2285L36.4447 23.7715C35.8494 22.6129 35.2122 21.4859 34.5354 20.3931C38.9355 17.3058 44.2612 15.5 50 15.5V14.5C44.0642 14.5 38.5537 16.3634 33.9995 19.5476C32.2063 16.7834 30.1557 14.2509 27.8878 11.9975C33.8064 7.8623 40.6763 5.5 48 5.5V4.5C40.3887 4.5 33.2645 6.97791 27.1574 11.2885C20.0553 4.55495 10.9469 0.5 1 0.5V1.5ZM0 11.5C10.0274 11.5 18.8002 17.0151 23.5673 25.2505L24.4327 24.7495C19.498 16.2245 10.4059 10.5 0 10.5V11.5Z" fill="#839745"/>
</svg>
